PathFileType	4	(X/Y/Z)	C:\Users\Hakeem\Desktop\Python Projects\BasketballMotionAnalysis\Sports2D_Results\free_throw_Sports2D\free_throw_Sports2D_px_person00.trc
DataRate	CameraRate	NumFrames	NumMarkers	Units	OrigDataRate	OrigDataStartFrame	OrigNumFrames
30.0	30.0	8	22	m	30.0	15	90
Frame#	Time	Hip			RHip			RKnee			RAnkle			RBigToe			RSmallToe			RHeel			LHip			LKnee			LAnkle			LBigToe			LSmallToe			LHeel			Neck			Head			Nose			RShoulder			RElbow			RWrist			LShoulder			LElbow			LWrist			
		X1	Y1	Z1	X2	Y2	Z2	X3	Y3	Z3	X4	Y4	Z4	X5	Y5	Z5	X6	Y6	Z6	X7	Y7	Z7	X8	Y8	Z8	X9	Y9	Z9	X10	Y10	Z10	X11	Y11	Z11	X12	Y12	Z12	X13	Y13	Z13	X14	Y14	Z14	X15	Y15	Z15	X16	Y16	Z16	X17	Y17	Z17	X18	Y18	Z18	X19	Y19	Z19	X20	Y20	Z20	X21	Y21	Z21	X22	Y22	Z22
15	0.5056179775280899	493.6336404425645	670.4265945939626	0.0	484.9198098582328	668.5147808827453	0.0	519.6966456500719	756.3592120183969	0.0	488.66257844836707	851.0906426636722	0.0	524.1117713039744	870.6478636018153	0.0	511.73025865166426	873.535765554647	0.0	476.58362186866975	863.5684913253222	0.0	505.6507925230406	668.8377629601546	0.0	541.2645196597766	752.0161834608508	0.0	517.9158128331239	835.193318883758	0.0	553.4356762168177	856.8549918827971	0.0	549.5492788664951	851.1417977296057	0.0	509.09915349019946	847.3995587503928	0.0	537.7602784742393	537.7769500974107	0.0	547.560827414838	475.5536324265288	0.0	565.1421950056731	499.58678234729473	0.0	532.340932515592	555.470450399826	0.0	535.7676420209785	619.5216745896204	0.0	579.6242057068164	613.7336939830574	0.0	533.0033404758517	554.7199729554693	0.0	526.4802401308834	613.8609275452524	0.0	576.3789157733409	625.8040460668834	0.0
16	0.5393258426966292	493.8926696547266	671.6220562821686	0.0	485.32822188812463	669.7644306898598	0.0	521.6351988264162	756.8761609804211	0.0	488.76959348124694	851.0864499006451	0.0	524.4080433281886	870.6990369728285	0.0	512.0985902194213	873.5083236601207	0.0	476.7400481598729	863.0502009539204	0.0	505.6846736900087	669.6807802209405	0.0	542.1947227227724	752.0103402199903	0.0	518.1821059962847	835.2928253820921	0.0	553.6752936136904	857.0710882252504	0.0	549.5752782139942	850.8748578438428	0.0	508.9920256079022	847.2953942882185	0.0	536.8928475700344	538.6077412696778	0.0	546.9746878880894	476.774745897242	0.0	564.9588337514784	500.65022402876343	0.0	532.2398241138085	556.8477940612734	0.0	537.6186353599608	621.0486973625593	0.0	580.6341113677104	613.9934806866451	0.0	531.3788451126237	555.5775980218508	0.0	526.953611911821	614.5522431765952	0.0	576.4717050407326	624.6073238756405	0.0
17	0.5730337078651685	494.140526691215	672.9643634036133	0.0	485.74562757972546	671.4514611521157	0.0	523.3604590206143	757.3412921852064	0.0	488.8750751449306	851.067060803228	0.0	524.6994668534682	870.7385371756798	0.0	512.527737534801	873.5982151258962	0.0	476.794698310668	862.7300235970067	0.0	505.57485586921143	671.2213977604429	0.0	543.177606299838	752.6312605782593	0.0	518.4373989137885	835.6497231647675	0.0	553.9128153696956	857.0073288729209	0.0	550.7349105893518	850.9039501562252	0.0	509.06015695996217	847.285363401622	0.0	536.4859197375533	539.5696596638816	0.0	546.3678413064274	477.93674892423763	0.0	564.7690508863167	502.04720209594433	0.0	532.4774530638574	558.4244394340277	0.0	539.3294978362001	622.7895036996105	0.0	580.9483782378709	615.0207448233822	0.0	530.8782877775662	556.77541455751	0.0	527.4699103342386	615.820007310764	0.0	576.6532850094815	623.6002316166825	0.0
18	0.6067415730337078	494.2638062942277	674.1572127278444	0.0	486.1576188169141	672.9114095960227	0.0	525.0947870779087	757.7752330954748	0.0	488.93991437464547	850.9920666044376	0.0	524.9364504950008	870.7754463759936	0.0	512.843277960156	873.6827737054434	0.0	476.82521431721904	862.7140228613654	0.0	505.28011803344464	672.8355368641083	0.0	543.675870991319	753.5349426224407	0.0	518.5281232529087	836.081712052415	0.0	554.2388599804061	857.1840897425751	0.0	552.3812475618852	851.1202631112897	0.0	509.24785595143857	847.2898922536598	0.0	536.4918922566126	540.3906013334431	0.0	545.8694999276717	478.82611751083743	0.0	564.4565884150401	503.4177773263368	0.0	533.1257513692703	559.4850826369832	0.0	541.0814462449246	624.0755059351608	0.0	581.5773760553011	616.6436921470283	0.0	530.8873166096453	557.600217738697	0.0	527.8012496324556	617.1604973723299	0.0	576.9676878924764	623.3152202841211	0.0
19	0.6404494382022472	494.19080374126264	674.9499371826341	0.0	486.36633478599947	673.7507261919188	0.0	526.7715646444514	758.377211179096	0.0	488.9677701129583	851.0054527850605	0.0	525.0953288306737	870.8998081060629	0.0	513.0045390905605	873.6440640106975	0.0	476.84348877970416	862.866317426062	0.0	504.95280493416976	673.8459708657488	0.0	543.6546638841495	754.0723048751504	0.0	518.523140418582	836.3540783349756	0.0	554.543767998889	857.7065702415357	0.0	552.9256956790188	851.1956450812719	0.0	509.4086907178556	847.3880653036672	0.0	536.6250156273812	540.9236491966403	0.0	545.6528633963546	479.33381947405564	0.0	564.0993833592828	504.4983045219541	0.0	533.8845425770671	560.1083574118665	0.0	543.0311346526277	625.013180586094	0.0	582.9970618780776	617.8821329139698	0.0	530.81329721605	557.9275731969932	0.0	528.1103414846267	617.972698198462	0.0	577.4193909248761	622.7851498266982	0.0
20	0.6741573033707865	494.0398636741086	675.2756867149736	0.0	486.29061158279126	674.0409413291777	0.0	527.3235814940421	759.0124894827335	0.0	488.915307610923	851.1490715799249	0.0	525.1432033655523	870.940283407835	0.0	512.9791077736983	873.4583883005791	0.0	476.7820615054985	862.9777990718488	0.0	504.82207388830386	674.093729374666	0.0	543.429233439	754.2212202633141	0.0	518.532693554622	836.3850343156821	0.0	554.6959025293354	857.9433680566514	0.0	552.3617551455304	851.063583223442	0.0	509.488657448673	847.7007868150727	0.0	536.8443524089229	541.0590037353204	0.0	545.6073119010853	479.5493387234096	0.0	563.9909901604212	505.1265800775019	0.0	534.2791913081406	560.4951137116024	0.0	544.415244153446	625.58343919389	0.0	584.2879548324391	618.4095559817843	0.0	530.8601484445985	557.9868064203102	0.0	528.5576314205211	618.0783560516779	0.0	578.1721103291115	621.1443142272686	0.0
21	0.7078651685393258	493.9476069510809	675.3532646077321	0.0	486.1809783704297	674.0386559770432	0.0	526.310002428055	759.297967934279	0.0	488.853960010177	851.3574877816138	0.0	525.1140673034129	870.8607630022169	0.0	512.8374421783161	873.293029669027	0.0	476.72277112644736	862.9330929614291	0.0	504.85354990642566	673.785899714105	0.0	543.26528615179	754.2608818269138	0.0	518.5444275088205	836.28025582497	0.0	554.702519683648	857.614473464565	0.0	552.02244329505	850.8613291013072	0.0	509.5310190436444	848.0864506605901	0.0	537.0543064024009	540.9740441812709	0.0	545.6162964422836	479.667938734024	0.0	564.1488191441314	505.2899461447508	0.0	534.332422851063	560.5455054155063	0.0	544.8601351503438	625.4731288549099	0.0	584.7045154544874	618.5469337575591	0.0	531.0240254429909	557.9437020804744	0.0	529.0625263285003	617.915972040891	0.0	579.2082952077451	619.5225459452577	0.0
22	0.7415730337078652	493.9003015843217	675.4277941696159	0.0	486.3096199374402	673.8739235945465	0.0	524.694575712575	759.1321692226525	0.0	488.89081806082186	851.5843683384338	0.0	525.0107513789605	870.8640478228513	0.0	512.7427332752177	873.280870648225	0.0	476.7340541451381	862.7816940313609	0.0	504.8994138611729	673.2272649072908	0.0	543.196701167294	754.02567515898	0.0	518.6594078092418	836.2004976238252	0.0	554.4967995503641	857.2285855708607	0.0	552.0354200917266	850.6802216688352	0.0	509.41292408833567	848.2685755364521	0.0	537.1365948640678	540.9675593832287	0.0	545.9575317818176	479.62165689793255	0.0	564.2036054303369	505.00154031517707	0.0	534.5402932406332	560.269294223836	0.0	545.5036614923623	624.7885251750583	0.0	585.0284072077989	617.5451317551082	0.0	531.0989117445464	557.7700348899101	0.0	529.6638624017104	617.8349092167998	0.0	579.9521098766854	619.3288265754519	0.0
